<?xml version="1.0" standalone="no"?>
<!DOCTYPE svg PUBLIC "-//W3C//DTD SVG 20010904//EN"
 "http://www.w3.org/TR/2001/REC-SVG-20010904/DTD/svg10.dtd">
<svg version="1.0" xmlns="http://www.w3.org/2000/svg"
 width="400.000000pt" height="400.000000pt" viewBox="0 0 400.000000 400.000000"
 preserveAspectRatio="xMidYMid meet">
<metadata>
Created by potrace 1.14, written by Peter Selinger 2001-2017
</metadata>
<g transform="translate(0.000000,400.000000) scale(0.100000,-0.100000)"
fill="#000000" stroke="none">
<path d="M1885 3061 c-63 -30 -734 -437 -766 -465 -35 -32 -72 -90 -85 -136
-6 -21 -10 -198 -10 -450 l1 -415 45 3 c25 1 56 4 69 5 l25 2 0 400 1 400 27
45 c14 25 37 55 50 66 23 21 540 321 639 370 68 35 156 36 219 4 25 -13 155
-86 290 -163 135 -77 262 -149 282 -161 63 -33 105 -74 129 -123 23 -48 23
-51 24 -443 l0 -395 30 -1 c17 -1 41 -3 55 -4 59 -5 55 -36 54 408 0 224 -4
423 -8 442 -12 52 -40 101 -78 137 -26 25 -430 276 -585 364 -17 10 -49 29
-70 42 -115 72 -136 80 -218 83 -62 3 -89 -1 -120 -15z"/>
<path d="M1960 2765 c0 -8 -7 -18 -15 -21 -8 -4 -15 -10 -15 -16 0 -5 5 -6 11
-3 6 4 13 -2 16 -14 3 -12 10 -21 15 -21 6 0 8 7 4 15 -5 13 5 20 27 16 4 0 7
4 7 9 0 6 -7 10 -15 10 -8 0 -15 6 -15 14 0 8 -4 18 -10 21 -5 3 -10 -1 -10
-10z"/>
<path d="M1725 2669 c-161 -86 -303 -265 -330 -417 -2 -15 -8 -47 -13 -72 -25
-140 17 -316 106 -446 40 -59 115 -137 162 -168 28 -19 55 -18 -427 -17 -275
0 -283 0 -283 -19 0 -18 7 -20 94 -20 90 0 93 -1 92 -22 -1 -22 -6 -23 -81
-25 -118 -2 -114 -1 -109 -21 5 -15 21 -17 167 -17 160 0 162 0 165 -23 2 -16
-2 -22 -15 -23 -10 0 -75 0 -146 -1 -122 0 -152 -7 -129 -30 6 -6 99 -9 236
-9 l226 0 0 -23 c0 -23 -2 -23 -102 -24 -140 0 -137 0 -135 -20 1 -17 17 -18
255 -17 139 0 258 -3 264 -6 5 -4 8 -15 6 -25 -2 -14 -10 -18 -32 -16 -28 4
-50 -13 -40 -30 8 -12 674 -10 674 2 0 20 -6 25 -30 26 -14 1 -31 2 -37 3 -7
0 -13 11 -13 24 l0 22 260 0 c250 0 261 1 258 19 -3 17 -14 18 -113 20 -103 1
-110 2 -110 21 0 21 -16 20 403 24 45 1 52 4 52 21 0 19 -6 20 -122 19 -163
-1 -155 -3 -154 24 1 22 2 22 159 21 145 0 157 1 157 18 0 20 1 20 -97 20 -70
0 -73 1 -73 24 0 23 2 24 83 24 75 0 83 2 84 20 2 19 -5 20 -305 19 -169 0
-318 0 -332 0 -24 2 -24 2 -5 13 42 24 138 125 175 185 45 70 47 78 23 68 -39
-17 -191 -41 -240 -39 -170 9 -323 76 -439 192 -52 52 -114 143 -133 194 -7
18 -16 40 -21 49 -14 28 -33 133 -34 194 -3 93 13 180 49 268 9 22 -2 22 -50
-4z"/>
<path d="M2440 2523 c0 -17 -6 -23 -22 -23 -21 0 -21 0 3 -23 19 -19 26 -21
35 -10 6 7 16 13 23 13 6 0 11 5 11 11 0 5 -4 8 -10 4 -5 -3 -16 7 -24 22 -14
26 -15 27 -16 6z"/>
<path d="M1890 2431 c0 -12 -10 -21 -27 -26 l-28 -7 28 -10 c17 -6 27 -17 27
-29 0 -10 5 -19 10 -19 6 0 10 7 10 15 0 8 12 21 28 29 26 15 26 17 0 20 -7 0
-17 11 -23 24 -12 27 -25 29 -25 3z"/>
<path d="M1280 2424 c0 -14 -8 -24 -22 -28 l-23 -7 23 -9 c12 -5 22 -15 22
-22 1 -8 5 -7 14 5 7 9 18 17 25 17 6 0 11 5 11 10 0 6 -5 9 -12 8 -6 -2 -17
8 -25 22 -12 23 -13 24 -13 4z"/>
<path d="M2105 2297 l-20 -22 23 -24 c16 -17 22 -20 22 -9 0 8 10 20 23 26 18
9 19 11 4 11 -10 1 -21 10 -25 20 -7 19 -8 19 -27 -2z"/>
<path d="M2549 2153 c-12 -30 -24 -42 -50 -50 l-34 -10 30 -12 c17 -6 35 -13
41 -15 6 -3 15 -22 19 -43 l7 -38 14 40 c16 43 28 55 62 55 32 0 27 16 -9 26
-32 9 -39 17 -56 63 -9 23 -10 22 -24 -16z"/>
<path d="M2217 2068 c-4 -16 -17 -30 -34 -36 l-28 -10 28 -7 c17 -5 29 -16 33
-32 l7 -25 13 31 c7 17 17 31 21 30 29 -5 33 4 6 16 -20 8 -33 22 -35 37 -3
22 -4 22 -11 -4z"/>
<path d="M1297 1812 c-4 -22 -14 -31 -39 -39 -33 -10 -32 -12 17 -28 9 -2 18
-13 21 -22 15 -46 17 -47 26 -15 5 18 17 35 26 38 48 16 48 16 27 24 -11 4
-23 6 -27 3 -4 -2 -14 12 -22 32 -8 19 -17 35 -19 35 -3 0 -7 -13 -10 -28z"/>
</g>
</svg>
